<svg width="85" height="34" viewBox="0 0 85 34" fill="none" xmlns="http://www.w3.org/2000/svg">
<path d="M4.44 17.928V23.256C4.44 27.576 4.744 30.744 5.352 32.76C4.776 33.016 4.024 33.144 3.096 33.144C2.168 33.144 1.544 32.936 1.224 32.52C0.904 32.104 0.744 31.4 0.744 30.408C0.744 29.896 0.76 28.632 0.792 26.616C0.824 24.6 0.84 23.032 0.84 21.912V12.648C0.84 8.072 0.616 4.344 0.168 1.464C3.592 1.176 7.08 1.032 10.632 1.032C15.24 1.032 17.832 1.272 18.408 1.752C18.696 2.008 18.84 2.424 18.84 3C18.84 3.768 18.712 4.472 18.456 5.112C16.632 4.44 13.656 4.104 9.528 4.104C7.832 4.104 6.072 4.152 4.248 4.248C4.376 5.656 4.44 7.56 4.44 9.96V14.904H8.232C10.888 14.904 12.808 14.84 13.992 14.712C14.12 14.968 14.184 15.384 14.184 15.96C14.184 16.888 13.928 17.448 13.416 17.64C12.904 17.832 11.72 17.928 9.864 17.928H4.44ZM25.9477 24.36V16.872C25.9477 13.544 25.8517 10.664 25.6597 8.232C26.2357 8.136 26.8438 8.088 27.4838 8.088C28.9877 8.088 29.7397 8.568 29.7397 9.528C29.7397 9.656 29.7077 10.152 29.6438 11.016C29.6118 11.88 29.5638 12.952 29.4997 14.232C29.4357 15.512 29.4037 16.728 29.4037 17.88V25.416C29.4037 28.776 29.6597 31.24 30.1717 32.808C29.6917 33 28.9877 33.096 28.0597 33.096C27.1957 33.096 26.6037 32.936 26.2837 32.616C25.9957 32.296 25.8517 31.752 25.8517 30.984C25.8517 30.6 25.8677 29.624 25.8997 28.056C25.9317 26.488 25.9477 25.256 25.9477 24.36ZM56.8875 28.968C57.7195 29.896 58.7435 30.36 59.9595 30.36C60.3435 30.36 60.7755 30.312 61.2555 30.216C61.5435 30.792 61.6875 31.272 61.6875 31.656C61.6875 32.872 60.4875 33.48 58.0875 33.48C57.4795 33.48 56.8715 33.336 56.2635 33.048C55.6555 32.76 55.0475 32.264 54.4395 31.56C53.8315 30.856 53.3035 30.232 52.8555 29.688C52.4395 29.144 51.9115 28.296 51.2715 27.144C50.6635 25.992 50.2315 25.176 49.9755 24.696C49.7195 24.184 49.2875 23.272 48.6795 21.96C48.0715 20.616 47.7195 19.848 47.6235 19.656C46.7275 19.528 46.2795 19.176 46.2795 18.6C46.2795 18.312 46.3595 17.88 46.5195 17.304C47.4155 17.464 48.1675 17.544 48.7755 17.544C50.9195 17.544 52.5995 16.92 53.8155 15.672C55.0315 14.392 55.6395 12.664 55.6395 10.488C55.6395 7.928 54.9675 6.152 53.6235 5.16C52.2795 4.136 50.2155 3.624 47.4315 3.624C46.4075 3.624 45.1595 3.688 43.6875 3.816C43.8155 5.672 43.8795 8.936 43.8795 13.608V23.256C43.8795 27.576 44.1835 30.744 44.7915 32.76C44.2155 33.016 43.4635 33.144 42.5355 33.144C41.6075 33.144 40.9835 32.936 40.6635 32.52C40.3435 32.104 40.1835 31.4 40.1835 30.408C40.1835 29.896 40.1995 28.632 40.2315 26.616C40.2635 24.6 40.2795 23.032 40.2795 21.912V12.312C40.2795 7.896 40.0715 4.216 39.6555 1.272C42.0235 0.887999 44.4075 0.695998 46.8075 0.695998C55.3835 0.695998 59.6715 3.88 59.6715 10.248C59.6715 12.872 58.9515 15 57.5115 16.632C56.0715 18.232 54.1675 19.256 51.7995 19.704C51.7995 19.736 52.0715 20.328 52.6155 21.48C53.1595 22.632 53.5275 23.4 53.7195 23.784C53.9435 24.168 54.2795 24.792 54.7275 25.656C55.1755 26.52 55.5595 27.208 55.8795 27.72C56.2315 28.232 56.5675 28.648 56.8875 28.968ZM72.1646 10.92C72.2606 11.688 72.3086 14.168 72.3086 18.36H75.3806C77.5246 18.36 79.0606 18.312 79.9886 18.216C80.0846 18.472 80.1326 18.824 80.1326 19.272C80.1326 19.912 79.9886 20.36 79.7006 20.616C79.4446 20.84 79.0286 20.968 78.4526 21C77.7806 21.032 76.8686 21.048 75.7166 21.048H72.3086C72.3086 26.2 72.4046 29.304 72.5966 30.36C73.7486 30.424 74.6766 30.456 75.3806 30.456C79.6046 30.456 82.3726 30.168 83.6846 29.592C83.9086 30.168 84.0206 30.776 84.0206 31.416C84.0206 31.928 83.8926 32.296 83.6366 32.52C83.1566 32.872 80.9806 33.048 77.1086 33.048C76.3406 33.048 75.1086 33.032 73.4126 33C71.7166 33 70.8366 33 70.7726 33C69.9726 32.968 69.4286 32.792 69.1406 32.472C68.8846 32.152 68.7566 31.624 68.7566 30.888C68.7566 30.44 68.7726 29.464 68.8046 27.96C68.8366 26.424 68.8526 25.224 68.8526 24.36V17.016C68.8526 13.368 68.6606 10.504 68.2766 8.424C71.4126 8.2 74.3406 8.088 77.0606 8.088C80.9326 8.088 83.1086 8.28 83.5886 8.664C83.8446 8.888 83.9726 9.256 83.9726 9.768C83.9726 10.408 83.8606 11.016 83.6366 11.592C82.1006 11.08 79.7006 10.824 76.4366 10.824C75.1886 10.824 73.7646 10.856 72.1646 10.92Z" fill="#206A5D"/>
</svg>
